{
  "source": "C:\\Users\\Peter\\Desktop\\stuff\\MIUN\\quantitative_research\\video_compression\\videos\\BVI-HD\\RockWave_1920x1080_30fps.mp4",
  "output": "C:\\Users\\Peter\\Desktop\\stuff\\MIUN\\quantitative_research\\video_compression\\compressed_videos\\BVI-HD\\vp9\\1.5\\RockWave_1920x1080_30fps_vp9.webm",
  "codec": "vp9",
  "ok": "Input #0, mov,mp4,m4a,3gp,3g2,mj2, from 'C:\\Users\\Peter\\Desktop\\stuff\\MIUN\\quantitative_research\\video_compression\\videos\\BVI-HD\\RockWave_1920x1080_30fps.mp4':\n  Metadata:\n    major_brand     : isom\n    minor_version   : 512\n    compatible_brands: isomiso2avc1mp41\n    encoder         : Lavf54.28.101\n  Duration: 00:00:05.00, start: 0.000000, bitrate: 303557 kb/s\n  Stream #0:0[0x1](und): Video: h264 (High 4:4:4 Predictive) (avc1 / 0x31637661), yuv420p(progressive), 1920x1080, 303553 kb/s, 30 fps, 30 tbr, 30 tbn (default)\n    Metadata:\n      handler_name    : VideoHandler\n      vendor_id       : [0][0][0][0]\n[out#0/webm @ 00000267e1829240] Codec AVOption b:a (set bitrate (in bits/s)) has not been used for any stream. The most likely reason is either wrong type (e.g. a video option with no video streams) or that it is a private option of some decoder which was not actually used for any stream.\nStream mapping:\n  Stream #0:0 -> #0:0 (h264 (native) -> vp9 (libvpx-vp9))\nPress [q] to stop, [?] for help\n[libvpx-vp9 @ 00000267e2330180] v1.15.2-100-g40561f514\nOutput #0, webm, to 'C:\\Users\\Peter\\Desktop\\stuff\\MIUN\\quantitative_research\\video_compression\\compressed_videos\\BVI-HD\\vp9\\1.5\\RockWave_1920x1080_30fps_vp9.webm':\n  Metadata:\n    major_brand     : isom\n    minor_version   : 512\n    compatible_brands: isomiso2avc1mp41\n    encoder         : Lavf62.3.100\n  Stream #0:0(und): Video: vp9, yuv420p(tv, progressive), 1920x1080, q=2-31, 1500 kb/s, 30 fps, 1k tbn (default)\n    Metadata:\n      encoder         : Lavc62.11.100 libvpx-vp9\n      handler_name    : VideoHandler\n      vendor_id       : [0][0][0][0]\n    Side data:\n      cpb: bitrate max/min/avg: 0/0/0 buffer size: 1500000 vbv_delay: N/A\nframe=    0 fps=0.0 q=0.0 size=       0KiB time=N/A bitrate=N/A speed=N/A elapsed=0:00:00.50    \nframe=    0 fps=0.0 q=0.0 size=       0KiB time=N/A bitrate=N/A speed=N/A elapsed=0:00:01.02    \nframe=    1 fps=0.6 q=29.0 size=       1KiB time=00:00:00.03 bitrate= 152.2kbits/s speed=0.0215x elapsed=0:00:01.55    \nframe=    4 fps=1.9 q=63.0 size=       1KiB time=00:00:00.13 bitrate=  38.0kbits/s speed=0.0646x elapsed=0:00:02.06    \nframe=    6 fps=2.3 q=63.0 size=       1KiB time=00:00:00.20 bitrate=  25.4kbits/s speed=0.0775x elapsed=0:00:02.58    \nframe=    9 fps=2.9 q=63.0 size=       1KiB time=00:00:00.30 bitrate=  16.9kbits/s speed=0.0969x elapsed=0:00:03.09    \nframe=   10 fps=2.8 q=63.0 size=       1KiB time=00:00:00.33 bitrate=  15.2kbits/s speed=0.0922x elapsed=0:00:03.61    \nframe=   13 fps=3.1 q=63.0 size=       1KiB time=00:00:00.43 bitrate=  11.7kbits/s speed=0.105x elapsed=0:00:04.13    \nframe=   15 fps=3.2 q=63.0 size=       1KiB time=00:00:00.50 bitrate=  10.1kbits/s speed=0.107x elapsed=0:00:04.65    \nframe=   17 fps=3.3 q=63.0 size=       1KiB time=00:00:00.56 bitrate=   9.0kbits/s speed=0.11x elapsed=0:00:05.17    \nframe=   19 fps=3.3 q=63.0 size=       1KiB time=00:00:00.63 bitrate=   8.0kbits/s speed=0.111x elapsed=0:00:05.68    \nframe=   21 fps=3.4 q=51.0 size=       1KiB time=00:00:00.70 bitrate=   7.2kbits/s speed=0.113x elapsed=0:00:06.20    \nframe=   24 fps=3.6 q=63.0 size=       1KiB time=00:00:00.80 bitrate=   6.3kbits/s speed=0.119x elapsed=0:00:06.72    \nframe=   26 fps=3.6 q=63.0 size=       1KiB time=00:00:00.86 bitrate=   5.9kbits/s speed=0.12x elapsed=0:00:07.24    \nframe=   28 fps=3.6 q=63.0 size=       1KiB time=00:00:00.93 bitrate=   5.4kbits/s speed=0.12x elapsed=0:00:07.75    \nframe=   30 fps=3.6 q=63.0 size=       1KiB time=00:00:01.00 bitrate=   5.1kbits/s speed=0.121x elapsed=0:00:08.27    \nframe=   32 fps=3.6 q=63.0 size=       1KiB time=00:00:01.06 bitrate=   4.8kbits/s speed=0.121x elapsed=0:00:08.78    \nframe=   34 fps=3.7 q=63.0 size=       1KiB time=00:00:01.13 bitrate=   4.5kbits/s speed=0.122x elapsed=0:00:09.30    \nframe=   37 fps=3.8 q=63.0 size=       1KiB time=00:00:01.23 bitrate=   4.1kbits/s speed=0.126x elapsed=0:00:09.81    \nframe=   39 fps=3.8 q=63.0 size=       1KiB time=00:00:01.30 bitrate=   3.9kbits/s speed=0.126x elapsed=0:00:10.33    \nframe=   40 fps=3.7 q=63.0 size=       1KiB time=00:00:01.33 bitrate=   3.8kbits/s speed=0.123x elapsed=0:00:10.84    \nframe=   43 fps=3.8 q=63.0 size=       1KiB time=00:00:01.43 bitrate=   3.5kbits/s speed=0.126x elapsed=0:00:11.36    \nframe=   45 fps=3.8 q=63.0 size=       1KiB time=00:00:01.50 bitrate=   3.4kbits/s speed=0.126x elapsed=0:00:11.89    \nframe=   47 fps=3.8 q=63.0 size=       1KiB time=00:00:01.56 bitrate=   3.2kbits/s speed=0.126x elapsed=0:00:12.41    \nframe=   49 fps=3.8 q=63.0 size=       1KiB time=00:00:01.63 bitrate=   3.1kbits/s speed=0.126x elapsed=0:00:12.92    \nframe=   51 fps=3.8 q=54.0 size=       1KiB time=00:00:01.70 bitrate=   3.0kbits/s speed=0.126x elapsed=0:00:13.44    \nframe=   54 fps=3.9 q=63.0 size=       1KiB time=00:00:01.80 bitrate=   2.8kbits/s speed=0.129x elapsed=0:00:13.96    \nframe=   56 fps=3.9 q=63.0 size=       1KiB time=00:00:01.86 bitrate=   2.7kbits/s speed=0.129x elapsed=0:00:14.47    \nframe=   58 fps=3.9 q=63.0 size=       1KiB time=00:00:01.93 bitrate=   2.6kbits/s speed=0.129x elapsed=0:00:14.99    \nframe=   60 fps=3.9 q=63.0 size=       1KiB time=00:00:02.00 bitrate=   2.5kbits/s speed=0.129x elapsed=0:00:15.51    \nframe=   63 fps=3.9 q=63.0 size=       1KiB time=00:00:02.10 bitrate=   2.4kbits/s speed=0.131x elapsed=0:00:16.02    \nframe=   65 fps=3.9 q=63.0 size=       1KiB time=00:00:02.16 bitrate=   2.3kbits/s speed=0.131x elapsed=0:00:16.54    \nframe=   67 fps=3.9 q=63.0 size=       1KiB time=00:00:02.23 bitrate=   2.3kbits/s speed=0.131x elapsed=0:00:17.06    \nframe=   70 fps=4.0 q=63.0 size=       1KiB time=00:00:02.33 bitrate=   2.2kbits/s speed=0.133x elapsed=0:00:17.58    \nframe=   72 fps=4.0 q=63.0 size=       1KiB time=00:00:02.40 bitrate=   2.1kbits/s speed=0.133x elapsed=0:00:18.10    \nframe=   74 fps=4.0 q=63.0 size=       1KiB time=00:00:02.46 bitrate=   2.1kbits/s speed=0.132x elapsed=0:00:18.63    \nframe=   77 fps=4.0 q=63.0 size=       1KiB time=00:00:02.56 bitrate=   2.0kbits/s speed=0.134x elapsed=0:00:19.14    \nframe=   79 fps=4.0 q=63.0 size=       1KiB time=00:00:02.63 bitrate=   1.9kbits/s speed=0.134x elapsed=0:00:19.66    \nframe=   82 fps=4.1 q=63.0 size=       1KiB time=00:00:02.73 bitrate=   1.9kbits/s speed=0.135x elapsed=0:00:20.17    \nframe=   84 fps=4.1 q=63.0 size=       1KiB time=00:00:02.80 bitrate=   1.8kbits/s speed=0.135x elapsed=0:00:20.69    \nframe=   87 fps=4.1 q=63.0 size=       1KiB time=00:00:02.90 bitrate=   1.7kbits/s speed=0.137x elapsed=0:00:21.20    \nframe=   89 fps=4.1 q=63.0 size=       1KiB time=00:00:02.96 bitrate=   1.7kbits/s speed=0.137x elapsed=0:00:21.73    \nframe=   91 fps=4.1 q=55.0 size=       1KiB time=00:00:03.03 bitrate=   1.7kbits/s speed=0.136x elapsed=0:00:22.25    \nframe=   94 fps=4.1 q=63.0 size=       1KiB time=00:00:03.13 bitrate=   1.6kbits/s speed=0.138x elapsed=0:00:22.77    \nframe=   96 fps=4.1 q=63.0 size=       1KiB time=00:00:03.20 bitrate=   1.6kbits/s speed=0.137x elapsed=0:00:23.29    \nframe=   99 fps=4.2 q=63.0 size=       1KiB time=00:00:03.30 bitrate=   1.5kbits/s speed=0.139x elapsed=0:00:23.80    \nframe=  101 fps=4.2 q=53.0 size=       1KiB time=00:00:03.36 bitrate=   1.5kbits/s speed=0.138x elapsed=0:00:24.31    \nframe=  104 fps=4.2 q=63.0 size=       1KiB time=00:00:03.46 bitrate=   1.5kbits/s speed=0.14x elapsed=0:00:24.83    \nframe=  106 fps=4.2 q=63.0 size=       1KiB time=00:00:03.53 bitrate=   1.4kbits/s speed=0.139x elapsed=0:00:25.35    \nframe=  109 fps=4.2 q=63.0 size=       1KiB time=00:00:03.63 bitrate=   1.4kbits/s speed=0.14x elapsed=0:00:25.87    \nframe=  111 fps=4.2 q=54.0 size=       1KiB time=00:00:03.70 bitrate=   1.4kbits/s speed=0.14x elapsed=0:00:26.39    \nframe=  114 fps=4.2 q=63.0 size=       1KiB time=00:00:03.80 bitrate=   1.3kbits/s speed=0.141x elapsed=0:00:26.90    \nframe=  116 fps=4.2 q=63.0 size=       1KiB time=00:00:03.86 bitrate=   1.3kbits/s speed=0.141x elapsed=0:00:27.42    \nframe=  119 fps=4.3 q=63.0 size=       1KiB time=00:00:03.96 bitrate=   1.3kbits/s speed=0.142x elapsed=0:00:27.93    \nframe=  121 fps=4.3 q=55.0 size=       1KiB time=00:00:04.03 bitrate=   1.3kbits/s speed=0.142x elapsed=0:00:28.45    \nframe=  123 fps=4.2 q=63.0 size=       1KiB time=00:00:04.10 bitrate=   1.2kbits/s speed=0.142x elapsed=0:00:28.97    \nframe=  126 fps=4.3 q=63.0 size=       1KiB time=00:00:04.20 bitrate=   1.2kbits/s speed=0.142x elapsed=0:00:29.49    \nframe=  126 fps=4.2 q=63.0 size=       1KiB time=00:00:04.20 bitrate=   1.2kbits/s speed=0.14x elapsed=0:00:30.00    \nframe=  126 fps=4.1 q=63.0 size=       1KiB time=00:00:04.20 bitrate=   1.2kbits/s speed=0.138x elapsed=0:00:30.51    \nframe=  126 fps=4.1 q=63.0 size=       1KiB time=00:00:04.20 bitrate=   1.2kbits/s speed=0.135x elapsed=0:00:31.03    \nframe=  126 fps=4.0 q=63.0 size=       1KiB time=00:00:04.20 bitrate=   1.2kbits/s speed=0.133x elapsed=0:00:31.54    \nframe=  126 fps=3.9 q=63.0 size=       1KiB time=00:00:04.20 bitrate=   1.2kbits/s speed=0.131x elapsed=0:00:32.07    \nframe=  126 fps=3.9 q=63.0 size=       1KiB time=00:00:04.20 bitrate=   1.2kbits/s speed=0.129x elapsed=0:00:32.57    \nframe=  126 fps=3.8 q=63.0 size=       1KiB time=00:00:04.20 bitrate=   1.2kbits/s speed=0.127x elapsed=0:00:33.09    \nframe=  126 fps=3.7 q=63.0 size=       1KiB time=00:00:04.20 bitrate=   1.2kbits/s speed=0.125x elapsed=0:00:33.62    \nframe=  126 fps=3.7 q=63.0 size=       1KiB time=00:00:04.20 bitrate=   1.2kbits/s speed=0.123x elapsed=0:00:34.13    \n[out#0/webm @ 00000267e1829240] video:1758KiB audio:0KiB subtitle:0KiB other streams:0KiB global headers:0KiB muxing overhead: 0.097995%\nframe=  150 fps=4.4 q=63.0 Lsize=    1760KiB time=00:00:05.00 bitrate=2883.0kbits/s speed=0.145x elapsed=0:00:34.36    \n",
  "seconds": 34.64729952812195,
  "probe_out": {}
}